# xmcd CD database file
#
# Track frame offsets:
#	150
#	22247
#	39320
#	56732
#	77867
#	97365
#	124105
#	143397
#	169485
#	195917
#
# Disc length: 2841 seconds
#
# Revision: 4
# Processed by: cddbd v1.5.1PL2 Copyright (c) Steve Scherf et al.
# Submitted via: CDex 1.70beta2
#
DISCID=890b170a
DTITLE=Cowboy Junkies - One Soul Now
DYEAR=2004
DGENRE=Rock
TTITLE0=One Soul Now
TTITLE1=Why This One
TTITLE2=My Wild Child
TTITLE3=From Hunting Ground To City
TTITLE4=The Stars Of Our Stars
TTITLE5=Notes Falling Slow
TTITLE6=No Long Journey Home
TTITLE7=He Will Call You Baby
TTITLE8=Simon Keeper
TTITLE9=The Slide
EXTD=YEAR: 2004
EXTT0=
EXTT1=
EXTT2=
EXTT3=
EXTT4=
EXTT5=
EXTT6=
EXTT7=
EXTT8=
EXTT9=
PLAYORDER=
